<?xml version="1.0" standalone="no"?><!-- Generator: Gravit.io --><svg xmlns="http://www.w3.org/2000/svg" xmlns:xlink="http://www.w3.org/1999/xlink" style="isolation:isolate" viewBox="0 0 1080 1080" width="1080px" height="1080px"><defs><clipPath id="_clipPath_fiUi1U0SLbPMnQbCl6zsjdvtbvAzrtzW"><rect width="1080" height="1080"/></clipPath></defs><g clip-path="url(#_clipPath_fiUi1U0SLbPMnQbCl6zsjdvtbvAzrtzW)"><linearGradient id="_lgradient_0" x1="-4.427014310692812e-15" y1="0.9999999999999984" x2="1.0573190209672276" y2="-0.034800291454352816" gradientTransform="matrix(1080,0,0,1080,0,0)" gradientUnits="userSpaceOnUse"><stop offset="0%" stop-opacity="1" style="stop-color:rgb(0,183,255)"/><stop offset="97.3913043478261%" stop-opacity="1" style="stop-color:rgb(213,4,255)"/></linearGradient><path d=" M 889.527 897.401 C 890.848 896.098 892.168 894.792 893.48 893.48 C 916.16 870.8 936.62 846 954.59 819.43 C 972.67 792.68 988.11 764.24 1000.7 734.51 C 1013.49 704.3 1023.25 672.89 1029.83 640.75 C 1036.61 607.6 1040.02 573.84 1040 540 C 1040.02 506.16 1036.61 472.4 1029.83 439.25 C 1023.25 407.11 1013.49 375.7 1000.7 345.49 C 988.11 315.76 972.67 287.32 954.59 260.57 C 936.62 234 916.16 209.2 893.48 186.52 C 870.8 163.84 846 143.38 819.43 125.41 C 792.68 107.33 764.24 91.89 734.51 79.3 C 704.3 66.51 672.89 56.75 640.75 50.17 C 607.6 43.39 573.84 39.98 540 40 C 506.16 39.98 472.4 43.39 439.25 50.17 C 407.11 56.75 375.7 66.51 345.49 79.3 C 315.76 91.89 287.32 107.33 260.57 125.41 C 234 143.38 209.2 163.84 186.52 186.52 C 163.84 209.2 143.38 234 125.41 260.57 C 107.33 287.32 91.89 315.76 79.3 345.49 C 66.51 375.7 56.75 407.11 50.17 439.24 C 43.39 472.4 39.98 506.16 40 540 L 40 540 C 39.98 573.84 43.39 607.6 50.17 640.75 C 56.75 672.89 66.51 704.3 79.3 734.51 C 91.89 764.24 107.33 792.68 125.41 819.43 C 143.38 846 163.84 870.8 186.52 893.48 C 187.832 894.792 189.152 896.098 190.473 897.401 C 207.263 786.118 276.015 691.772 371.197 639.908 L 371.197 639.908 C 337.127 600.685 316.5 549.482 316.5 493.5 L 316.5 493.5 C 316.5 370.147 416.647 270 540 270 C 663.353 270 763.5 370.147 763.5 493.5 C 763.5 549.482 742.873 600.685 708.803 639.908 C 803.985 691.772 872.737 786.118 889.527 897.401 Z  M 852.837 929.943 C 842.048 938.605 830.904 946.83 819.43 954.59 C 792.68 972.67 764.24 988.11 734.51 1000.7 C 704.3 1013.49 672.89 1023.25 640.75 1029.83 C 607.6 1036.61 573.84 1040.02 540 1040 C 506.16 1040.02 472.4 1036.61 439.25 1029.83 C 407.11 1023.25 375.7 1013.49 345.49 1000.7 C 315.76 988.11 287.32 972.67 260.57 954.59 C 249.096 946.83 237.952 938.605 227.162 929.942 C 228.094 915.624 230.004 901.38 232.88 887.31 C 237 867.17 243.12 847.49 251.13 828.56 C 266.92 791.31 289.75 757.46 318.37 728.87 C 342.738 704.477 370.927 684.289 401.786 669.085 L 401.786 669.085 C 439.825 699.092 487.838 717 540 717 C 592.162 717 640.175 699.092 678.214 669.085 L 678.214 669.085 L 678.214 669.085 C 709.073 684.289 737.262 704.477 761.63 728.87 C 790.25 757.46 813.08 791.31 828.87 828.56 C 836.88 847.49 843 867.17 847.12 887.31 C 849.996 901.385 851.906 915.628 852.837 929.943 Z  M 0 540 C 0 241.966 241.966 0 540 0 C 838.034 0 1080 241.966 1080 540 C 1080 702.892 1007.72 849.035 893.493 948.059 C 798.756 1030.249 675.142 1080 540 1080 C 404.858 1080 281.244 1030.249 186.507 948.059 C 72.28 849.035 0 702.892 0 540 L 0 540 Z  M 356.5 493.5 C 356.49 481.07 357.74 468.67 360.23 456.49 C 362.65 444.72 366.22 433.21 370.91 422.14 C 380.15 400.33 393.52 380.51 410.28 363.78 C 427.01 347.02 446.83 333.65 468.64 324.41 C 479.71 319.72 491.22 316.15 503 313.73 C 515.18 311.24 527.57 309.99 540 310 C 552.43 309.99 564.82 311.24 577 313.73 C 588.78 316.15 600.29 319.72 611.36 324.41 C 633.17 333.65 652.99 347.02 669.72 363.78 C 686.48 380.51 699.85 400.33 709.09 422.14 C 713.78 433.21 717.35 444.72 719.77 456.5 C 722.26 468.68 723.51 481.07 723.5 493.5 C 723.51 505.93 722.26 518.32 719.77 530.5 C 717.35 542.28 713.78 553.79 709.09 564.86 C 699.85 586.67 686.48 606.49 669.72 623.22 C 652.99 639.98 633.17 653.35 611.36 662.59 C 600.29 667.28 588.78 670.85 577 673.27 C 564.82 675.76 552.43 677.01 540 677 C 527.57 677.01 515.18 675.76 503 673.27 C 491.22 670.85 479.71 667.28 468.64 662.59 C 446.83 653.35 427.01 639.98 410.28 623.22 C 393.52 606.49 380.15 586.67 370.91 564.86 C 366.22 553.79 362.65 542.28 360.23 530.5 C 357.74 518.32 356.49 505.93 356.5 493.5 L 356.5 493.5 L 356.5 493.5 L 356.5 493.5 Z " fill-rule="evenodd" fill="url(#_lgradient_0)"/></g></svg>